<?xml version="1.0" encoding="iso-8859-1"?>
<!-- Generator: Adobe Illustrator 16.0.0, SVG Export Plug-In . SVG Version: 6.00 Build 0)  -->
<!DOCTYPE svg PUBLIC "-//W3C//DTD SVG 1.1//EN" "http://www.w3.org/Graphics/SVG/1.1/DTD/svg11.dtd">
<svg version="1.1" id="Capa_1" xmlns="http://www.w3.org/2000/svg" xmlns:xlink="http://www.w3.org/1999/xlink" x="0px" y="0px"
	 width="611.988px" height="611.988px" viewBox="0 0 611.988 611.988" style="enable-background:new 0 0 611.988 611.988;"
	 xml:space="preserve">
<g>
	<g id="Shape_15">
		<g>
			<path d="M557.176,73.704H54.824C24.597,73.704,0,98.471,0,128.89v299.089c0,30.431,24.597,55.197,54.824,55.197H293.05v32.493
				H169.524c-6.208,0-11.228,5.053-11.228,11.307s5.019,11.308,11.228,11.308h258.28c6.209,0,11.228-5.054,11.228-11.308
				c0-6.242-5.019-11.307-11.228-11.307H315.506v-32.493h241.659c30.228,0,54.823-24.767,54.823-55.197V128.89
				C612,98.471,587.403,73.704,557.176,73.704z M22.455,413.919V142.622h567.078v271.297H22.455z M54.824,96.318h502.352
				c14.763,0,27.112,10.072,30.986,23.702H23.837C27.701,106.378,40.05,96.318,54.824,96.318z M557.176,460.563H54.824
				c-14.887,0-27.327-10.231-31.088-24.03h564.529C584.503,450.332,572.063,460.563,557.176,460.563z"/>
		</g>
	</g>
</g>
<g>
</g>
<g>
</g>
<g>
</g>
<g>
</g>
<g>
</g>
<g>
</g>
<g>
</g>
<g>
</g>
<g>
</g>
<g>
</g>
<g>
</g>
<g>
</g>
<g>
</g>
<g>
</g>
<g>
</g>
</svg>
